<?xml version="1.0" encoding="utf-8"?>
<svg xmlns="http://www.w3.org/2000/svg" xmlns:xlink="http://www.w3.org/1999/xlink" style="margin: auto; background: transparent; display: block; shape-rendering: auto;" width="44px" height="44px" viewBox="0 0 100 100" preserveAspectRatio="xMidYMid">
<g transform="rotate(0 50 50)">
  <rect x="46.5" y="21" rx="2.4" ry="2.4" width="7" height="16" fill="#fe718d">
    <animate attributeName="opacity" values="1;0" keyTimes="0;1" dur="1.36986301369863s" begin="-1.356164383561644s" repeatCount="indefinite"></animate>
  </rect>
</g><g transform="rotate(3.6 50 50)">
  <rect x="46.5" y="21" rx="2.4" ry="2.4" width="7" height="16" fill="#fe718d">
    <animate attributeName="opacity" values="1;0" keyTimes="0;1" dur="1.36986301369863s" begin="-1.3424657534246576s" repeatCount="indefinite"></animate>
  </rect>
</g><g transform="rotate(7.2 50 50)">
  <rect x="46.5" y="21" rx="2.4" ry="2.4" width="7" height="16" fill="#fe718d">
    <animate attributeName="opacity" values="1;0" keyTimes="0;1" dur="1.36986301369863s" begin="-1.3287671232876712s" repeatCount="indefinite"></animate>
  </rect>
</g><g transform="rotate(10.8 50 50)">
  <rect x="46.5" y="21" rx="2.4" ry="2.4" width="7" height="16" fill="#fe718d">
    <animate attributeName="opacity" values="1;0" keyTimes="0;1" dur="1.36986301369863s" begin="-1.3150684931506849s" repeatCount="indefinite"></animate>
  </rect>
</g><g transform="rotate(14.4 50 50)">
  <rect x="46.5" y="21" rx="2.4" ry="2.4" width="7" height="16" fill="#fe718d">
    <animate attributeName="opacity" values="1;0" keyTimes="0;1" dur="1.36986301369863s" begin="-1.3013698630136987s" repeatCount="indefinite"></animate>
  </rect>
</g><g transform="rotate(18 50 50)">
  <rect x="46.5" y="21" rx="2.4" ry="2.4" width="7" height="16" fill="#fe718d">
    <animate attributeName="opacity" values="1;0" keyTimes="0;1" dur="1.36986301369863s" begin="-1.2876712328767124s" repeatCount="indefinite"></animate>
  </rect>
</g><g transform="rotate(21.6 50 50)">
  <rect x="46.5" y="21" rx="2.4" ry="2.4" width="7" height="16" fill="#fe718d">
    <animate attributeName="opacity" values="1;0" keyTimes="0;1" dur="1.36986301369863s" begin="-1.273972602739726s" repeatCount="indefinite"></animate>
  </rect>
</g><g transform="rotate(25.2 50 50)">
  <rect x="46.5" y="21" rx="2.4" ry="2.4" width="7" height="16" fill="#fe718d">
    <animate attributeName="opacity" values="1;0" keyTimes="0;1" dur="1.36986301369863s" begin="-1.2602739726027397s" repeatCount="indefinite"></animate>
  </rect>
</g><g transform="rotate(28.8 50 50)">
  <rect x="46.5" y="21" rx="2.4" ry="2.4" width="7" height="16" fill="#fe718d">
    <animate attributeName="opacity" values="1;0" keyTimes="0;1" dur="1.36986301369863s" begin="-1.2465753424657535s" repeatCount="indefinite"></animate>
  </rect>
</g><g transform="rotate(32.4 50 50)">
  <rect x="46.5" y="21" rx="2.4" ry="2.4" width="7" height="16" fill="#fe718d">
    <animate attributeName="opacity" values="1;0" keyTimes="0;1" dur="1.36986301369863s" begin="-1.2328767123287672s" repeatCount="indefinite"></animate>
  </rect>
</g><g transform="rotate(36 50 50)">
  <rect x="46.5" y="21" rx="2.4" ry="2.4" width="7" height="16" fill="#fe718d">
    <animate attributeName="opacity" values="1;0" keyTimes="0;1" dur="1.36986301369863s" begin="-1.2191780821917808s" repeatCount="indefinite"></animate>
  </rect>
</g><g transform="rotate(39.6 50 50)">
  <rect x="46.5" y="21" rx="2.4" ry="2.4" width="7" height="16" fill="#fe718d">
    <animate attributeName="opacity" values="1;0" keyTimes="0;1" dur="1.36986301369863s" begin="-1.2054794520547945s" repeatCount="indefinite"></animate>
  </rect>
</g><g transform="rotate(43.2 50 50)">
  <rect x="46.5" y="21" rx="2.4" ry="2.4" width="7" height="16" fill="#fe718d">
    <animate attributeName="opacity" values="1;0" keyTimes="0;1" dur="1.36986301369863s" begin="-1.1917808219178083s" repeatCount="indefinite"></animate>
  </rect>
</g><g transform="rotate(46.8 50 50)">
  <rect x="46.5" y="21" rx="2.4" ry="2.4" width="7" height="16" fill="#fe718d">
    <animate attributeName="opacity" values="1;0" keyTimes="0;1" dur="1.36986301369863s" begin="-1.178082191780822s" repeatCount="indefinite"></animate>
  </rect>
</g><g transform="rotate(50.4 50 50)">
  <rect x="46.5" y="21" rx="2.4" ry="2.4" width="7" height="16" fill="#fe718d">
    <animate attributeName="opacity" values="1;0" keyTimes="0;1" dur="1.36986301369863s" begin="-1.1643835616438356s" repeatCount="indefinite"></animate>
  </rect>
</g><g transform="rotate(54 50 50)">
  <rect x="46.5" y="21" rx="2.4" ry="2.4" width="7" height="16" fill="#fe718d">
    <animate attributeName="opacity" values="1;0" keyTimes="0;1" dur="1.36986301369863s" begin="-1.1506849315068493s" repeatCount="indefinite"></animate>
  </rect>
</g><g transform="rotate(57.6 50 50)">
  <rect x="46.5" y="21" rx="2.4" ry="2.4" width="7" height="16" fill="#fe718d">
    <animate attributeName="opacity" values="1;0" keyTimes="0;1" dur="1.36986301369863s" begin="-1.1369863013698631s" repeatCount="indefinite"></animate>
  </rect>
</g><g transform="rotate(61.2 50 50)">
  <rect x="46.5" y="21" rx="2.4" ry="2.4" width="7" height="16" fill="#fe718d">
    <animate attributeName="opacity" values="1;0" keyTimes="0;1" dur="1.36986301369863s" begin="-1.1232876712328768s" repeatCount="indefinite"></animate>
  </rect>
</g><g transform="rotate(64.8 50 50)">
  <rect x="46.5" y="21" rx="2.4" ry="2.4" width="7" height="16" fill="#fe718d">
    <animate attributeName="opacity" values="1;0" keyTimes="0;1" dur="1.36986301369863s" begin="-1.1095890410958904s" repeatCount="indefinite"></animate>
  </rect>
</g><g transform="rotate(68.4 50 50)">
  <rect x="46.5" y="21" rx="2.4" ry="2.4" width="7" height="16" fill="#fe718d">
    <animate attributeName="opacity" values="1;0" keyTimes="0;1" dur="1.36986301369863s" begin="-1.095890410958904s" repeatCount="indefinite"></animate>
  </rect>
</g><g transform="rotate(72 50 50)">
  <rect x="46.5" y="21" rx="2.4" ry="2.4" width="7" height="16" fill="#fe718d">
    <animate attributeName="opacity" values="1;0" keyTimes="0;1" dur="1.36986301369863s" begin="-1.082191780821918s" repeatCount="indefinite"></animate>
  </rect>
</g><g transform="rotate(75.6 50 50)">
  <rect x="46.5" y="21" rx="2.4" ry="2.4" width="7" height="16" fill="#fe718d">
    <animate attributeName="opacity" values="1;0" keyTimes="0;1" dur="1.36986301369863s" begin="-1.0684931506849316s" repeatCount="indefinite"></animate>
  </rect>
</g><g transform="rotate(79.2 50 50)">
  <rect x="46.5" y="21" rx="2.4" ry="2.4" width="7" height="16" fill="#fe718d">
    <animate attributeName="opacity" values="1;0" keyTimes="0;1" dur="1.36986301369863s" begin="-1.0547945205479452s" repeatCount="indefinite"></animate>
  </rect>
</g><g transform="rotate(82.8 50 50)">
  <rect x="46.5" y="21" rx="2.4" ry="2.4" width="7" height="16" fill="#fe718d">
    <animate attributeName="opacity" values="1;0" keyTimes="0;1" dur="1.36986301369863s" begin="-1.0410958904109588s" repeatCount="indefinite"></animate>
  </rect>
</g><g transform="rotate(86.4 50 50)">
  <rect x="46.5" y="21" rx="2.4" ry="2.4" width="7" height="16" fill="#fe718d">
    <animate attributeName="opacity" values="1;0" keyTimes="0;1" dur="1.36986301369863s" begin="-1.0273972602739727s" repeatCount="indefinite"></animate>
  </rect>
</g><g transform="rotate(90 50 50)">
  <rect x="46.5" y="21" rx="2.4" ry="2.4" width="7" height="16" fill="#fe718d">
    <animate attributeName="opacity" values="1;0" keyTimes="0;1" dur="1.36986301369863s" begin="-1.0136986301369864s" repeatCount="indefinite"></animate>
  </rect>
</g><g transform="rotate(93.6 50 50)">
  <rect x="46.5" y="21" rx="2.4" ry="2.4" width="7" height="16" fill="#fe718d">
    <animate attributeName="opacity" values="1;0" keyTimes="0;1" dur="1.36986301369863s" begin="-1s" repeatCount="indefinite"></animate>
  </rect>
</g><g transform="rotate(97.2 50 50)">
  <rect x="46.5" y="21" rx="2.4" ry="2.4" width="7" height="16" fill="#fe718d">
    <animate attributeName="opacity" values="1;0" keyTimes="0;1" dur="1.36986301369863s" begin="-0.9863013698630136s" repeatCount="indefinite"></animate>
  </rect>
</g><g transform="rotate(100.8 50 50)">
  <rect x="46.5" y="21" rx="2.4" ry="2.4" width="7" height="16" fill="#fe718d">
    <animate attributeName="opacity" values="1;0" keyTimes="0;1" dur="1.36986301369863s" begin="-0.9726027397260274s" repeatCount="indefinite"></animate>
  </rect>
</g><g transform="rotate(104.4 50 50)">
  <rect x="46.5" y="21" rx="2.4" ry="2.4" width="7" height="16" fill="#fe718d">
    <animate attributeName="opacity" values="1;0" keyTimes="0;1" dur="1.36986301369863s" begin="-0.958904109589041s" repeatCount="indefinite"></animate>
  </rect>
</g><g transform="rotate(108 50 50)">
  <rect x="46.5" y="21" rx="2.4" ry="2.4" width="7" height="16" fill="#fe718d">
    <animate attributeName="opacity" values="1;0" keyTimes="0;1" dur="1.36986301369863s" begin="-0.9452054794520548s" repeatCount="indefinite"></animate>
  </rect>
</g><g transform="rotate(111.6 50 50)">
  <rect x="46.5" y="21" rx="2.4" ry="2.4" width="7" height="16" fill="#fe718d">
    <animate attributeName="opacity" values="1;0" keyTimes="0;1" dur="1.36986301369863s" begin="-0.9315068493150684s" repeatCount="indefinite"></animate>
  </rect>
</g><g transform="rotate(115.2 50 50)">
  <rect x="46.5" y="21" rx="2.4" ry="2.4" width="7" height="16" fill="#fe718d">
    <animate attributeName="opacity" values="1;0" keyTimes="0;1" dur="1.36986301369863s" begin="-0.9178082191780822s" repeatCount="indefinite"></animate>
  </rect>
</g><g transform="rotate(118.8 50 50)">
  <rect x="46.5" y="21" rx="2.4" ry="2.4" width="7" height="16" fill="#fe718d">
    <animate attributeName="opacity" values="1;0" keyTimes="0;1" dur="1.36986301369863s" begin="-0.9041095890410958s" repeatCount="indefinite"></animate>
  </rect>
</g><g transform="rotate(122.4 50 50)">
  <rect x="46.5" y="21" rx="2.4" ry="2.4" width="7" height="16" fill="#fe718d">
    <animate attributeName="opacity" values="1;0" keyTimes="0;1" dur="1.36986301369863s" begin="-0.8904109589041096s" repeatCount="indefinite"></animate>
  </rect>
</g><g transform="rotate(126 50 50)">
  <rect x="46.5" y="21" rx="2.4" ry="2.4" width="7" height="16" fill="#fe718d">
    <animate attributeName="opacity" values="1;0" keyTimes="0;1" dur="1.36986301369863s" begin="-0.8767123287671232s" repeatCount="indefinite"></animate>
  </rect>
</g><g transform="rotate(129.6 50 50)">
  <rect x="46.5" y="21" rx="2.4" ry="2.4" width="7" height="16" fill="#fe718d">
    <animate attributeName="opacity" values="1;0" keyTimes="0;1" dur="1.36986301369863s" begin="-0.863013698630137s" repeatCount="indefinite"></animate>
  </rect>
</g><g transform="rotate(133.2 50 50)">
  <rect x="46.5" y="21" rx="2.4" ry="2.4" width="7" height="16" fill="#fe718d">
    <animate attributeName="opacity" values="1;0" keyTimes="0;1" dur="1.36986301369863s" begin="-0.8493150684931506s" repeatCount="indefinite"></animate>
  </rect>
</g><g transform="rotate(136.8 50 50)">
  <rect x="46.5" y="21" rx="2.4" ry="2.4" width="7" height="16" fill="#fe718d">
    <animate attributeName="opacity" values="1;0" keyTimes="0;1" dur="1.36986301369863s" begin="-0.8356164383561644s" repeatCount="indefinite"></animate>
  </rect>
</g><g transform="rotate(140.4 50 50)">
  <rect x="46.5" y="21" rx="2.4" ry="2.4" width="7" height="16" fill="#fe718d">
    <animate attributeName="opacity" values="1;0" keyTimes="0;1" dur="1.36986301369863s" begin="-0.821917808219178s" repeatCount="indefinite"></animate>
  </rect>
</g><g transform="rotate(144 50 50)">
  <rect x="46.5" y="21" rx="2.4" ry="2.4" width="7" height="16" fill="#fe718d">
    <animate attributeName="opacity" values="1;0" keyTimes="0;1" dur="1.36986301369863s" begin="-0.8082191780821918s" repeatCount="indefinite"></animate>
  </rect>
</g><g transform="rotate(147.6 50 50)">
  <rect x="46.5" y="21" rx="2.4" ry="2.4" width="7" height="16" fill="#fe718d">
    <animate attributeName="opacity" values="1;0" keyTimes="0;1" dur="1.36986301369863s" begin="-0.7945205479452054s" repeatCount="indefinite"></animate>
  </rect>
</g><g transform="rotate(151.2 50 50)">
  <rect x="46.5" y="21" rx="2.4" ry="2.4" width="7" height="16" fill="#fe718d">
    <animate attributeName="opacity" values="1;0" keyTimes="0;1" dur="1.36986301369863s" begin="-0.7808219178082192s" repeatCount="indefinite"></animate>
  </rect>
</g><g transform="rotate(154.8 50 50)">
  <rect x="46.5" y="21" rx="2.4" ry="2.4" width="7" height="16" fill="#fe718d">
    <animate attributeName="opacity" values="1;0" keyTimes="0;1" dur="1.36986301369863s" begin="-0.7671232876712328s" repeatCount="indefinite"></animate>
  </rect>
</g><g transform="rotate(158.4 50 50)">
  <rect x="46.5" y="21" rx="2.4" ry="2.4" width="7" height="16" fill="#fe718d">
    <animate attributeName="opacity" values="1;0" keyTimes="0;1" dur="1.36986301369863s" begin="-0.7534246575342466s" repeatCount="indefinite"></animate>
  </rect>
</g><g transform="rotate(162 50 50)">
  <rect x="46.5" y="21" rx="2.4" ry="2.4" width="7" height="16" fill="#fe718d">
    <animate attributeName="opacity" values="1;0" keyTimes="0;1" dur="1.36986301369863s" begin="-0.7397260273972602s" repeatCount="indefinite"></animate>
  </rect>
</g><g transform="rotate(165.6 50 50)">
  <rect x="46.5" y="21" rx="2.4" ry="2.4" width="7" height="16" fill="#fe718d">
    <animate attributeName="opacity" values="1;0" keyTimes="0;1" dur="1.36986301369863s" begin="-0.726027397260274s" repeatCount="indefinite"></animate>
  </rect>
</g><g transform="rotate(169.2 50 50)">
  <rect x="46.5" y="21" rx="2.4" ry="2.4" width="7" height="16" fill="#fe718d">
    <animate attributeName="opacity" values="1;0" keyTimes="0;1" dur="1.36986301369863s" begin="-0.7123287671232876s" repeatCount="indefinite"></animate>
  </rect>
</g><g transform="rotate(172.8 50 50)">
  <rect x="46.5" y="21" rx="2.4" ry="2.4" width="7" height="16" fill="#fe718d">
    <animate attributeName="opacity" values="1;0" keyTimes="0;1" dur="1.36986301369863s" begin="-0.6986301369863014s" repeatCount="indefinite"></animate>
  </rect>
</g><g transform="rotate(176.4 50 50)">
  <rect x="46.5" y="21" rx="2.4" ry="2.4" width="7" height="16" fill="#fe718d">
    <animate attributeName="opacity" values="1;0" keyTimes="0;1" dur="1.36986301369863s" begin="-0.684931506849315s" repeatCount="indefinite"></animate>
  </rect>
</g><g transform="rotate(180 50 50)">
  <rect x="46.5" y="21" rx="2.4" ry="2.4" width="7" height="16" fill="#fe718d">
    <animate attributeName="opacity" values="1;0" keyTimes="0;1" dur="1.36986301369863s" begin="-0.6712328767123288s" repeatCount="indefinite"></animate>
  </rect>
</g><g transform="rotate(183.6 50 50)">
  <rect x="46.5" y="21" rx="2.4" ry="2.4" width="7" height="16" fill="#fe718d">
    <animate attributeName="opacity" values="1;0" keyTimes="0;1" dur="1.36986301369863s" begin="-0.6575342465753424s" repeatCount="indefinite"></animate>
  </rect>
</g><g transform="rotate(187.2 50 50)">
  <rect x="46.5" y="21" rx="2.4" ry="2.4" width="7" height="16" fill="#fe718d">
    <animate attributeName="opacity" values="1;0" keyTimes="0;1" dur="1.36986301369863s" begin="-0.6438356164383562s" repeatCount="indefinite"></animate>
  </rect>
</g><g transform="rotate(190.8 50 50)">
  <rect x="46.5" y="21" rx="2.4" ry="2.4" width="7" height="16" fill="#fe718d">
    <animate attributeName="opacity" values="1;0" keyTimes="0;1" dur="1.36986301369863s" begin="-0.6301369863013698s" repeatCount="indefinite"></animate>
  </rect>
</g><g transform="rotate(194.4 50 50)">
  <rect x="46.5" y="21" rx="2.4" ry="2.4" width="7" height="16" fill="#fe718d">
    <animate attributeName="opacity" values="1;0" keyTimes="0;1" dur="1.36986301369863s" begin="-0.6164383561643836s" repeatCount="indefinite"></animate>
  </rect>
</g><g transform="rotate(198 50 50)">
  <rect x="46.5" y="21" rx="2.4" ry="2.4" width="7" height="16" fill="#fe718d">
    <animate attributeName="opacity" values="1;0" keyTimes="0;1" dur="1.36986301369863s" begin="-0.6027397260273972s" repeatCount="indefinite"></animate>
  </rect>
</g><g transform="rotate(201.6 50 50)">
  <rect x="46.5" y="21" rx="2.4" ry="2.4" width="7" height="16" fill="#fe718d">
    <animate attributeName="opacity" values="1;0" keyTimes="0;1" dur="1.36986301369863s" begin="-0.589041095890411s" repeatCount="indefinite"></animate>
  </rect>
</g><g transform="rotate(205.2 50 50)">
  <rect x="46.5" y="21" rx="2.4" ry="2.4" width="7" height="16" fill="#fe718d">
    <animate attributeName="opacity" values="1;0" keyTimes="0;1" dur="1.36986301369863s" begin="-0.5753424657534246s" repeatCount="indefinite"></animate>
  </rect>
</g><g transform="rotate(208.8 50 50)">
  <rect x="46.5" y="21" rx="2.4" ry="2.4" width="7" height="16" fill="#fe718d">
    <animate attributeName="opacity" values="1;0" keyTimes="0;1" dur="1.36986301369863s" begin="-0.5616438356164384s" repeatCount="indefinite"></animate>
  </rect>
</g><g transform="rotate(212.4 50 50)">
  <rect x="46.5" y="21" rx="2.4" ry="2.4" width="7" height="16" fill="#fe718d">
    <animate attributeName="opacity" values="1;0" keyTimes="0;1" dur="1.36986301369863s" begin="-0.547945205479452s" repeatCount="indefinite"></animate>
  </rect>
</g><g transform="rotate(216 50 50)">
  <rect x="46.5" y="21" rx="2.4" ry="2.4" width="7" height="16" fill="#fe718d">
    <animate attributeName="opacity" values="1;0" keyTimes="0;1" dur="1.36986301369863s" begin="-0.5342465753424658s" repeatCount="indefinite"></animate>
  </rect>
</g><g transform="rotate(219.6 50 50)">
  <rect x="46.5" y="21" rx="2.4" ry="2.4" width="7" height="16" fill="#fe718d">
    <animate attributeName="opacity" values="1;0" keyTimes="0;1" dur="1.36986301369863s" begin="-0.5205479452054794s" repeatCount="indefinite"></animate>
  </rect>
</g><g transform="rotate(223.2 50 50)">
  <rect x="46.5" y="21" rx="2.4" ry="2.4" width="7" height="16" fill="#fe718d">
    <animate attributeName="opacity" values="1;0" keyTimes="0;1" dur="1.36986301369863s" begin="-0.5068493150684932s" repeatCount="indefinite"></animate>
  </rect>
</g><g transform="rotate(226.8 50 50)">
  <rect x="46.5" y="21" rx="2.4" ry="2.4" width="7" height="16" fill="#fe718d">
    <animate attributeName="opacity" values="1;0" keyTimes="0;1" dur="1.36986301369863s" begin="-0.4931506849315068s" repeatCount="indefinite"></animate>
  </rect>
</g><g transform="rotate(230.4 50 50)">
  <rect x="46.5" y="21" rx="2.4" ry="2.4" width="7" height="16" fill="#fe718d">
    <animate attributeName="opacity" values="1;0" keyTimes="0;1" dur="1.36986301369863s" begin="-0.4794520547945205s" repeatCount="indefinite"></animate>
  </rect>
</g><g transform="rotate(234 50 50)">
  <rect x="46.5" y="21" rx="2.4" ry="2.4" width="7" height="16" fill="#fe718d">
    <animate attributeName="opacity" values="1;0" keyTimes="0;1" dur="1.36986301369863s" begin="-0.4657534246575342s" repeatCount="indefinite"></animate>
  </rect>
</g><g transform="rotate(237.6 50 50)">
  <rect x="46.5" y="21" rx="2.4" ry="2.4" width="7" height="16" fill="#fe718d">
    <animate attributeName="opacity" values="1;0" keyTimes="0;1" dur="1.36986301369863s" begin="-0.4520547945205479s" repeatCount="indefinite"></animate>
  </rect>
</g><g transform="rotate(241.2 50 50)">
  <rect x="46.5" y="21" rx="2.4" ry="2.4" width="7" height="16" fill="#fe718d">
    <animate attributeName="opacity" values="1;0" keyTimes="0;1" dur="1.36986301369863s" begin="-0.4383561643835616s" repeatCount="indefinite"></animate>
  </rect>
</g><g transform="rotate(244.8 50 50)">
  <rect x="46.5" y="21" rx="2.4" ry="2.4" width="7" height="16" fill="#fe718d">
    <animate attributeName="opacity" values="1;0" keyTimes="0;1" dur="1.36986301369863s" begin="-0.4246575342465753s" repeatCount="indefinite"></animate>
  </rect>
</g><g transform="rotate(248.4 50 50)">
  <rect x="46.5" y="21" rx="2.4" ry="2.4" width="7" height="16" fill="#fe718d">
    <animate attributeName="opacity" values="1;0" keyTimes="0;1" dur="1.36986301369863s" begin="-0.410958904109589s" repeatCount="indefinite"></animate>
  </rect>
</g><g transform="rotate(252 50 50)">
  <rect x="46.5" y="21" rx="2.4" ry="2.4" width="7" height="16" fill="#fe718d">
    <animate attributeName="opacity" values="1;0" keyTimes="0;1" dur="1.36986301369863s" begin="-0.3972602739726027s" repeatCount="indefinite"></animate>
  </rect>
</g><g transform="rotate(255.6 50 50)">
  <rect x="46.5" y="21" rx="2.4" ry="2.4" width="7" height="16" fill="#fe718d">
    <animate attributeName="opacity" values="1;0" keyTimes="0;1" dur="1.36986301369863s" begin="-0.3835616438356164s" repeatCount="indefinite"></animate>
  </rect>
</g><g transform="rotate(259.2 50 50)">
  <rect x="46.5" y="21" rx="2.4" ry="2.4" width="7" height="16" fill="#fe718d">
    <animate attributeName="opacity" values="1;0" keyTimes="0;1" dur="1.36986301369863s" begin="-0.3698630136986301s" repeatCount="indefinite"></animate>
  </rect>
</g><g transform="rotate(262.8 50 50)">
  <rect x="46.5" y="21" rx="2.4" ry="2.4" width="7" height="16" fill="#fe718d">
    <animate attributeName="opacity" values="1;0" keyTimes="0;1" dur="1.36986301369863s" begin="-0.3561643835616438s" repeatCount="indefinite"></animate>
  </rect>
</g><g transform="rotate(266.4 50 50)">
  <rect x="46.5" y="21" rx="2.4" ry="2.4" width="7" height="16" fill="#fe718d">
    <animate attributeName="opacity" values="1;0" keyTimes="0;1" dur="1.36986301369863s" begin="-0.3424657534246575s" repeatCount="indefinite"></animate>
  </rect>
</g><g transform="rotate(270 50 50)">
  <rect x="46.5" y="21" rx="2.4" ry="2.4" width="7" height="16" fill="#fe718d">
    <animate attributeName="opacity" values="1;0" keyTimes="0;1" dur="1.36986301369863s" begin="-0.3287671232876712s" repeatCount="indefinite"></animate>
  </rect>
</g><g transform="rotate(273.6 50 50)">
  <rect x="46.5" y="21" rx="2.4" ry="2.4" width="7" height="16" fill="#fe718d">
    <animate attributeName="opacity" values="1;0" keyTimes="0;1" dur="1.36986301369863s" begin="-0.3150684931506849s" repeatCount="indefinite"></animate>
  </rect>
</g><g transform="rotate(277.2 50 50)">
  <rect x="46.5" y="21" rx="2.4" ry="2.4" width="7" height="16" fill="#fe718d">
    <animate attributeName="opacity" values="1;0" keyTimes="0;1" dur="1.36986301369863s" begin="-0.3013698630136986s" repeatCount="indefinite"></animate>
  </rect>
</g><g transform="rotate(280.8 50 50)">
  <rect x="46.5" y="21" rx="2.4" ry="2.4" width="7" height="16" fill="#fe718d">
    <animate attributeName="opacity" values="1;0" keyTimes="0;1" dur="1.36986301369863s" begin="-0.2876712328767123s" repeatCount="indefinite"></animate>
  </rect>
</g><g transform="rotate(284.4 50 50)">
  <rect x="46.5" y="21" rx="2.4" ry="2.4" width="7" height="16" fill="#fe718d">
    <animate attributeName="opacity" values="1;0" keyTimes="0;1" dur="1.36986301369863s" begin="-0.273972602739726s" repeatCount="indefinite"></animate>
  </rect>
</g><g transform="rotate(288 50 50)">
  <rect x="46.5" y="21" rx="2.4" ry="2.4" width="7" height="16" fill="#fe718d">
    <animate attributeName="opacity" values="1;0" keyTimes="0;1" dur="1.36986301369863s" begin="-0.2602739726027397s" repeatCount="indefinite"></animate>
  </rect>
</g><g transform="rotate(291.6 50 50)">
  <rect x="46.5" y="21" rx="2.4" ry="2.4" width="7" height="16" fill="#fe718d">
    <animate attributeName="opacity" values="1;0" keyTimes="0;1" dur="1.36986301369863s" begin="-0.2465753424657534s" repeatCount="indefinite"></animate>
  </rect>
</g><g transform="rotate(295.2 50 50)">
  <rect x="46.5" y="21" rx="2.4" ry="2.4" width="7" height="16" fill="#fe718d">
    <animate attributeName="opacity" values="1;0" keyTimes="0;1" dur="1.36986301369863s" begin="-0.2328767123287671s" repeatCount="indefinite"></animate>
  </rect>
</g><g transform="rotate(298.8 50 50)">
  <rect x="46.5" y="21" rx="2.4" ry="2.4" width="7" height="16" fill="#fe718d">
    <animate attributeName="opacity" values="1;0" keyTimes="0;1" dur="1.36986301369863s" begin="-0.2191780821917808s" repeatCount="indefinite"></animate>
  </rect>
</g><g transform="rotate(302.4 50 50)">
  <rect x="46.5" y="21" rx="2.4" ry="2.4" width="7" height="16" fill="#fe718d">
    <animate attributeName="opacity" values="1;0" keyTimes="0;1" dur="1.36986301369863s" begin="-0.2054794520547945s" repeatCount="indefinite"></animate>
  </rect>
</g><g transform="rotate(306 50 50)">
  <rect x="46.5" y="21" rx="2.4" ry="2.4" width="7" height="16" fill="#fe718d">
    <animate attributeName="opacity" values="1;0" keyTimes="0;1" dur="1.36986301369863s" begin="-0.1917808219178082s" repeatCount="indefinite"></animate>
  </rect>
</g><g transform="rotate(309.6 50 50)">
  <rect x="46.5" y="21" rx="2.4" ry="2.4" width="7" height="16" fill="#fe718d">
    <animate attributeName="opacity" values="1;0" keyTimes="0;1" dur="1.36986301369863s" begin="-0.1780821917808219s" repeatCount="indefinite"></animate>
  </rect>
</g><g transform="rotate(313.2 50 50)">
  <rect x="46.5" y="21" rx="2.4" ry="2.4" width="7" height="16" fill="#fe718d">
    <animate attributeName="opacity" values="1;0" keyTimes="0;1" dur="1.36986301369863s" begin="-0.1643835616438356s" repeatCount="indefinite"></animate>
  </rect>
</g><g transform="rotate(316.8 50 50)">
  <rect x="46.5" y="21" rx="2.4" ry="2.4" width="7" height="16" fill="#fe718d">
    <animate attributeName="opacity" values="1;0" keyTimes="0;1" dur="1.36986301369863s" begin="-0.1506849315068493s" repeatCount="indefinite"></animate>
  </rect>
</g><g transform="rotate(320.4 50 50)">
  <rect x="46.5" y="21" rx="2.4" ry="2.4" width="7" height="16" fill="#fe718d">
    <animate attributeName="opacity" values="1;0" keyTimes="0;1" dur="1.36986301369863s" begin="-0.136986301369863s" repeatCount="indefinite"></animate>
  </rect>
</g><g transform="rotate(324 50 50)">
  <rect x="46.5" y="21" rx="2.4" ry="2.4" width="7" height="16" fill="#fe718d">
    <animate attributeName="opacity" values="1;0" keyTimes="0;1" dur="1.36986301369863s" begin="-0.1232876712328767s" repeatCount="indefinite"></animate>
  </rect>
</g><g transform="rotate(327.6 50 50)">
  <rect x="46.5" y="21" rx="2.4" ry="2.4" width="7" height="16" fill="#fe718d">
    <animate attributeName="opacity" values="1;0" keyTimes="0;1" dur="1.36986301369863s" begin="-0.1095890410958904s" repeatCount="indefinite"></animate>
  </rect>
</g><g transform="rotate(331.2 50 50)">
  <rect x="46.5" y="21" rx="2.4" ry="2.4" width="7" height="16" fill="#fe718d">
    <animate attributeName="opacity" values="1;0" keyTimes="0;1" dur="1.36986301369863s" begin="-0.0958904109589041s" repeatCount="indefinite"></animate>
  </rect>
</g><g transform="rotate(334.8 50 50)">
  <rect x="46.5" y="21" rx="2.4" ry="2.4" width="7" height="16" fill="#fe718d">
    <animate attributeName="opacity" values="1;0" keyTimes="0;1" dur="1.36986301369863s" begin="-0.0821917808219178s" repeatCount="indefinite"></animate>
  </rect>
</g><g transform="rotate(338.4 50 50)">
  <rect x="46.5" y="21" rx="2.4" ry="2.4" width="7" height="16" fill="#fe718d">
    <animate attributeName="opacity" values="1;0" keyTimes="0;1" dur="1.36986301369863s" begin="-0.0684931506849315s" repeatCount="indefinite"></animate>
  </rect>
</g><g transform="rotate(342 50 50)">
  <rect x="46.5" y="21" rx="2.4" ry="2.4" width="7" height="16" fill="#fe718d">
    <animate attributeName="opacity" values="1;0" keyTimes="0;1" dur="1.36986301369863s" begin="-0.0547945205479452s" repeatCount="indefinite"></animate>
  </rect>
</g><g transform="rotate(345.6 50 50)">
  <rect x="46.5" y="21" rx="2.4" ry="2.4" width="7" height="16" fill="#fe718d">
    <animate attributeName="opacity" values="1;0" keyTimes="0;1" dur="1.36986301369863s" begin="-0.0410958904109589s" repeatCount="indefinite"></animate>
  </rect>
</g><g transform="rotate(349.2 50 50)">
  <rect x="46.5" y="21" rx="2.4" ry="2.4" width="7" height="16" fill="#fe718d">
    <animate attributeName="opacity" values="1;0" keyTimes="0;1" dur="1.36986301369863s" begin="-0.0273972602739726s" repeatCount="indefinite"></animate>
  </rect>
</g><g transform="rotate(352.8 50 50)">
  <rect x="46.5" y="21" rx="2.4" ry="2.4" width="7" height="16" fill="#fe718d">
    <animate attributeName="opacity" values="1;0" keyTimes="0;1" dur="1.36986301369863s" begin="-0.0136986301369863s" repeatCount="indefinite"></animate>
  </rect>
</g><g transform="rotate(356.4 50 50)">
  <rect x="46.5" y="21" rx="2.4" ry="2.4" width="7" height="16" fill="#fe718d">
    <animate attributeName="opacity" values="1;0" keyTimes="0;1" dur="1.36986301369863s" begin="0s" repeatCount="indefinite"></animate>
  </rect>
</g>
<!-- [ldio] generated by https://loading.io/ --></svg>